<?xml version="1.0" encoding="utf-8"?>
<!-- Generator: Adobe Illustrator 27.5.0, SVG Export Plug-In . SVG Version: 6.00 Build 0)  -->
<svg version="1.1" id="Laag_1" xmlns="http://www.w3.org/2000/svg" xmlns:xlink="http://www.w3.org/1999/xlink" x="0px" y="0px"
	 viewBox="0 0 595.3 841.9" style="enable-background:new 0 0 595.3 841.9;" xml:space="preserve">
<style type="text/css">
	.st0{fill:#D6CBCB;stroke:#D6CBCB;stroke-miterlimit:10;}
	.st1{fill:#D6CBCB;stroke:#D6CBCB;stroke-width:1;stroke-miterlimit:9.9999;}
	.st2{fill:#D6CBCB;stroke:#D6CBCB;stroke-width:1.0001;stroke-miterlimit:10.0006;}
	.st3{fill:#D6CBCB;stroke:#D6CBCB;stroke-width:1;stroke-miterlimit:10.0003;}
</style>
<g>
	<path class="st0" d="M117.4,345.8c0-10.9-8.9-19.8-19.8-19.8s-19.8,8.9-19.8,19.8c0,9.1,6.2,16.8,14.6,19.1v164.4
		c-8.5,2.3-14.7,10-14.7,19.1c0,10.9,8.9,19.8,19.8,19.8s19.8-8.9,19.8-19.8c0-9-6-16.6-14.2-19V364.9
		C111.3,362.5,117.4,354.8,117.4,345.8z M88.4,345.8c0-5,4.1-9.1,9.1-9.1c5,0,9.1,4.1,9.1,9.1c0,5-4.1,9.1-9.1,9.1
		C92.5,354.9,88.4,350.9,88.4,345.8z M106.6,548.4c0,5-4.1,9.1-9.1,9.1s-9.1-4.1-9.1-9.1c0-5,4.1-9.1,9.1-9.1
		S106.6,543.4,106.6,548.4z"/>
	<path class="st0" d="M164.7,313.5c0-10.9-8.9-19.8-19.8-19.8s-19.8,8.9-19.8,19.8c0,9,6,16.6,14.2,19v229c-8.3,2.4-14.4,10-14.4,19
		c0,10.9,8.9,19.8,19.8,19.8s19.8-8.9,19.8-19.8c0-9.1-6.2-16.8-14.5-19.1V332.6C158.5,330.4,164.7,322.7,164.7,313.5z M135.8,313.5
		c0-5,4.1-9.1,9.1-9.1c5,0,9.1,4.1,9.1,9.1c0,5-4.1,9.1-9.1,9.1C139.9,322.6,135.8,318.5,135.8,313.5z M153.9,580.6
		c0,5-4.1,9.1-9.1,9.1c-5,0-9.1-4.1-9.1-9.1c0-5,4.1-9.1,9.1-9.1C149.8,571.5,153.9,575.6,153.9,580.6z"/>
	<path class="st0" d="M213.2,283.6c0-10.9-8.9-19.8-19.8-19.8c-10.9,0-19.8,8.9-19.8,19.8c0,9,6.1,16.7,14.3,19v288.7
		c-8.4,2.3-14.5,10-14.5,19.1c0,10.9,8.9,19.8,19.8,19.8c10.9,0,19.8-8.9,19.8-19.8c0-9.1-6.1-16.7-14.4-19.1V302.7
		C207,300.4,213.2,292.7,213.2,283.6z M184.3,283.6c0-5,4.1-9.1,9.1-9.1c5,0,9.1,4.1,9.1,9.1c0,5-4.1,9.1-9.1,9.1
		C188.4,292.7,184.3,288.6,184.3,283.6z M202.3,610.4c0,5-4.1,9.1-9.1,9.1c-5,0-9.1-4.1-9.1-9.1c0-5,4.1-9.1,9.1-9.1
		C198.3,601.3,202.3,605.4,202.3,610.4z"/>
	<path class="st0" d="M106.5,283.5c0-10.9-8.9-19.8-19.8-19.8c-8.9,0-16.4,5.9-18.9,14H64v10.7h3.5c2.2,8.6,10,14.9,19.2,14.9
		C97.6,303.3,106.5,294.5,106.5,283.5z M77.6,283.5c0-5,4.1-9.1,9.1-9.1s9.1,4.1,9.1,9.1c0,5-4.1,9.1-9.1,9.1S77.6,288.5,77.6,283.5
		z"/>
	<path class="st0" d="M-91.4,547.3c-9,0-16.7,6.1-19,14.4h-11.5v10.7h11.5c2.3,8.4,10,14.5,19.1,14.5c10.9,0,19.8-8.9,19.8-19.8
		C-71.5,556.1-80.4,547.3-91.4,547.3z M-91.4,576.2c-5,0-9.1-4.1-9.1-9.1c0-5,4.1-9.1,9.1-9.1c5,0,9.1,4.1,9.1,9.1
		C-82.2,572.1-86.3,576.2-91.4,576.2z"/>
	<path class="st0" d="M-20.1,704.1c0-10.9-8.9-19.8-19.8-19.8s-19.8,8.9-19.8,19.8c0,10.9,8.9,19.8,19.8,19.8c4.5,0,8.6-1.5,11.9-4
		l180.7,180.7V972h10.7v-75.8L-21.4,711.3C-20.6,709.1-20.1,706.7-20.1,704.1z M-39.9,713.2c-5,0-9.1-4.1-9.1-9.1
		c0-5,4.1-9.1,9.1-9.1s9.1,4.1,9.1,9.1C-30.8,709.1-34.9,713.2-39.9,713.2z"/>
	<path class="st0" d="M-6.2,772c0-10.9-8.9-19.8-19.8-19.8s-19.8,8.9-19.8,19.8c0,10.9,8.9,19.8,19.8,19.8c4.2,0,8.1-1.3,11.3-3.6
		L123.1,926v46h10.7v-50.4L-7.8,779.9C-6.8,777.5-6.2,774.8-6.2,772z M-26,781.1c-5,0-9.1-4.1-9.1-9.1s4.1-9.1,9.1-9.1
		s9.1,4.1,9.1,9.1S-21,781.1-26,781.1z"/>
	<path class="st0" d="M-81.9,692.5c8.4-2.3,14.5-10,14.5-19.1c0-10.9-8.9-19.8-19.8-19.8s-19.8,8.9-19.8,19.8
		c0,9.1,6.1,16.7,14.4,19.1v79.2L28.4,892.8V972h10.7v-83.6L-81.9,767.3L-81.9,692.5L-81.9,692.5z M-96.4,673.4c0-5,4.1-9.1,9.1-9.1
		c5,0,9.1,4.1,9.1,9.1s-4.1,9.1-9.1,9.1C-92.3,682.5-96.4,678.5-96.4,673.4z"/>
	<path class="st0" d="M-63.6,610.2h-25.6c-2.4-8.3-10-14.4-19-14.4c-10.9,0-19.8,8.9-19.8,19.8s8.9,19.8,19.8,19.8
		c9.1,0,16.8-6.2,19.1-14.5h21.1l253.3,253.3V972h10.7V869.8l-258-258L-63.6,610.2z M-108.3,624.8c-5,0-9.1-4.1-9.1-9.1
		s4.1-9.1,9.1-9.1c5,0,9.1,4.1,9.1,9.1S-103.3,624.8-108.3,624.8z"/>
	<path class="st0" d="M-87.4,849.3c-2.4-8.3-10-14.4-19-14.4c-10.9,0-19.8,8.9-19.8,19.8c0,10.9,8.9,19.8,19.8,19.8
		c9.1,0,16.8-6.2,19.1-14.5H-54l36.8,36.8V972h10.7v-79.6l-43.1-43.1L-87.4,849.3L-87.4,849.3z M-106.5,863.8c-5,0-9.1-4.1-9.1-9.1
		s4.1-9.1,9.1-9.1c5,0,9.1,4.1,9.1,9.1S-101.5,863.8-106.5,863.8z"/>
	<rect x="-31.5" y="277.7" class="st0" width="15.9" height="10.7"/>
	<rect x="0.3" y="277.7" class="st0" width="15.9" height="10.7"/>
	<rect x="32.1" y="277.7" class="st0" width="15.9" height="10.7"/>
	<polygon class="st0" points="-50.1,288.4 -47.5,288.4 -47.5,277.7 -60.8,277.7 -60.8,291.1 -50.1,291.1 	"/>
	<rect x="-60.8" y="401.8" class="st0" width="10.7" height="15.8"/>
	<rect x="-60.8" y="370.2" class="st0" width="10.7" height="15.8"/>
	<rect x="-60.8" y="433.5" class="st0" width="10.7" height="15.8"/>
	<rect x="-60.8" y="338.6" class="st0" width="10.7" height="15.8"/>
	<polygon class="st0" points="-60.8,568.2 -52.2,576.8 -44.7,569.2 -50.1,563.7 -50.1,560.1 -60.8,560.1 	"/>
	<rect x="-60.8" y="465.1" class="st0" width="10.7" height="15.8"/>
	
		<rect x="-37.1" y="581.8" transform="matrix(0.7071 -0.7071 0.7071 0.7071 -426.2995 150.3122)" class="st1" width="10.7" height="15.8"/>
	<rect x="-60.8" y="306.9" class="st0" width="10.7" height="15.8"/>
	<rect x="-60.8" y="528.4" class="st0" width="10.7" height="15.8"/>
	<rect x="231.6" y="913.5" class="st0" width="10.7" height="15.8"/>
	<rect x="-60.8" y="496.8" class="st0" width="10.7" height="15.8"/>
	
		<rect x="209.1" y="827.9" transform="matrix(0.7071 -0.7071 0.7071 0.7071 -528.2283 396.4361)" class="st1" width="10.7" height="15.8"/>
	
		<rect x="186.7" y="805.6" transform="matrix(0.7071 -0.7071 0.7071 0.7071 -518.9631 374.0566)" class="st1" width="10.7" height="15.8"/>
	<rect x="231.6" y="945.2" class="st0" width="10.7" height="15.8"/>
	
		<rect x="-14.7" y="604.2" transform="matrix(0.7071 -0.7071 0.7071 0.7071 -435.5569 172.6922)" class="st1" width="10.7" height="15.8"/>
	<polygon class="st0" points="227.4,856.4 231.6,860.6 231.6,866.1 242.4,866.1 242.4,856.2 235,848.9 	"/>
	<rect x="231.6" y="881.9" class="st0" width="10.7" height="15.8"/>
	
		<rect x="164.3" y="783.2" transform="matrix(0.7071 -0.7071 0.7071 0.7071 -509.698 351.6772)" class="st1" width="10.7" height="15.8"/>
	
		<rect x="141.9" y="760.8" transform="matrix(0.7071 -0.7071 0.7071 0.7071 -500.4333 329.2976)" class="st1" width="10.7" height="15.8"/>
	
		<rect x="52.4" y="671.3" transform="matrix(0.7071 -0.7071 0.7071 0.7071 -463.3625 239.805)" class="st1" width="10.7" height="15.8"/>
	
		<rect x="7.7" y="626.6" transform="matrix(0.7071 -0.7071 0.7071 0.7071 -444.814 195.0721)" class="st1" width="10.7" height="15.8"/>
	
		<rect x="30.1" y="649" transform="matrix(0.7071 -0.7071 0.7071 0.7071 -454.0869 217.4512)" class="st1" width="10.7" height="15.8"/>
	
		<rect x="97.2" y="716.1" transform="matrix(0.7071 -0.7071 0.7071 0.7071 -481.9012 284.564)" class="st1" width="10.7" height="15.8"/>
	
		<rect x="119.6" y="738.4" transform="matrix(0.7071 -0.7071 0.7071 0.7071 -491.158 306.9436)" class="st1" width="10.7" height="15.8"/>
	
		<rect x="74.8" y="693.7" transform="matrix(0.7071 -0.7071 0.7071 0.7071 -472.6277 262.1848)" class="st1" width="10.7" height="15.8"/>
	<path class="st0" d="M-0.9,368c8.5-2.2,14.9-10,14.9-19.2C14,337.9,5.1,329-5.8,329s-19.8,8.9-19.8,19.8c0,8.9,5.9,16.5,14.1,19
		v189.7l282.8,282.8V972H282V835.8L-0.9,553V368z M-14.9,348.8c0-5,4.1-9.1,9.1-9.1s9.1,4.1,9.1,9.1c0,5-4.1,9.1-9.1,9.1
		S-14.9,353.8-14.9,348.8z"/>
	<path class="st0" d="M51.6,367.8c8.2-2.4,14.2-10,14.2-19C65.8,337.9,57,329,46,329s-19.8,8.9-19.8,19.8c0,9.2,6.3,16.9,14.7,19.1
		v189.5l282.8,282.8V972h10.7V835.8L51.6,553V367.8z M36.9,348.8c0-5,4.1-9.1,9.1-9.1c5,0,9.1,4.1,9.1,9.1c0,5-4.1,9.1-9.1,9.1
		C41,357.9,36.9,353.8,36.9,348.8z"/>
	<rect x="-153" y="621.6" class="st0" width="10.7" height="16.1"/>
	<rect x="-153" y="589.5" class="st0" width="10.7" height="16.1"/>
	<polygon class="st0" points="-153,573.4 -142.3,573.4 -142.3,572.4 -138,572.4 -138,561.6 -153,561.6 	"/>
	<rect x="-153" y="846.6" class="st0" width="10.7" height="16.1"/>
	<rect x="-153" y="878.8" class="st0" width="10.7" height="16.1"/>
	<rect x="-153" y="814.5" class="st0" width="10.7" height="16.1"/>
	<rect x="-153" y="653.8" class="st0" width="10.7" height="16.1"/>
	<rect x="-153" y="782.4" class="st0" width="10.7" height="16.1"/>
	<rect x="-153" y="910.9" class="st0" width="10.7" height="16.1"/>
	<rect x="-153" y="943.1" class="st0" width="10.7" height="16.1"/>
	<rect x="-153" y="750.2" class="st0" width="10.7" height="16.1"/>
	<rect x="-153" y="718.1" class="st0" width="10.7" height="16.1"/>
	<rect x="-153" y="685.9" class="st0" width="10.7" height="16.1"/>
	<path class="st0" d="M-86.6,287.7c8.4-2.3,14.6-10,14.6-19.1c0-10.9-8.9-19.8-19.8-19.8s-19.8,8.9-19.8,19.8c0,9,6.1,16.7,14.3,19
		v236.5h-95.3V972h10.7V534.9h95.3L-86.6,287.7L-86.6,287.7z M-100.9,268.6c0-5,4.1-9.1,9.1-9.1c5,0,9.1,4.1,9.1,9.1
		c0,5-4.1,9.1-9.1,9.1C-96.8,277.7-100.9,273.6-100.9,268.6z"/>
	<path class="st0" d="M653,885c-9.1,0-16.7,6.1-19.1,14.5H449.7L323.9,773.7v-56.1c8.3-2.3,14.5-10,14.5-19.1
		c0-10.9-8.9-19.8-19.8-19.8s-19.8,8.9-19.8,19.8c0,9.1,6.1,16.7,14.5,19.1v60.5l54.6,54.6V972h10.7V843.5l65.1,65.1l1.6,1.6h70.4
		V972h10.7v-61.8h28.9V972H566v-61.8H634c2.3,8.3,10,14.4,19.1,14.4c10.9,0,19.8-8.9,19.8-19.8C672.8,893.9,663.9,885,653,885z
		 M309.4,698.6c0-5,4.1-9.1,9.1-9.1s9.1,4.1,9.1,9.1c0,5-4.1,9.1-9.1,9.1S309.4,703.6,309.4,698.6z M653,913.9c-5,0-9.1-4.1-9.1-9.1
		c0-5,4.1-9.1,9.1-9.1c5,0,9.1,4.1,9.1,9.1C662.1,909.8,658,913.9,653,913.9z"/>
	<path class="st0" d="M696.7,606c-10.9,0-19.8,8.9-19.8,19.8c0,10.9,8.9,19.8,19.8,19.8c10.9,0,19.8-8.9,19.8-19.8
		C716.6,614.9,707.7,606,696.7,606z M696.7,634.9c-5,0-9.1-4.1-9.1-9.1c0-5,4.1-9.1,9.1-9.1c5,0,9.1,4.1,9.1,9.1
		C705.8,630.8,701.8,634.9,696.7,634.9z"/>
	<path class="st0" d="M696.7,718.9c-10.9,0-19.8,8.9-19.8,19.8c0,10.9,8.9,19.8,19.8,19.8c10.9,0,19.8-8.9,19.8-19.8
		C716.6,727.8,707.7,718.9,696.7,718.9z"/>
	<path class="st0" d="M780.4,685.1c0,10.9,8.9,19.8,19.8,19.8c10.9,0,19.8-8.9,19.8-19.8c0-10.9-8.9-19.8-19.8-19.8
		C789.3,665.3,780.4,674.2,780.4,685.1z M809.4,685.1c0,5-4.1,9.1-9.1,9.1c-5,0-9.1-4.1-9.1-9.1s4.1-9.1,9.1-9.1
		C805.3,676,809.4,680.1,809.4,685.1z"/>
	<path class="st0" d="M696.7,771.3c-10.9,0-19.8,8.9-19.8,19.8c0,10.9,8.9,19.8,19.8,19.8c10.9,0,19.8-8.9,19.8-19.8
		C716.6,780.2,707.7,771.3,696.7,771.3z M696.7,800.2c-5,0-9.1-4.1-9.1-9.1s4.1-9.1,9.1-9.1c5,0,9.1,4.1,9.1,9.1
		S701.8,800.2,696.7,800.2z"/>
	<path class="st0" d="M942.6,4.3c10.9,0,19.8-8.9,19.8-19.8s-8.9-19.8-19.8-19.8c-10.9,0-19.8,8.9-19.8,19.8
		C922.8-4.6,931.7,4.3,942.6,4.3z"/>
	<path class="st0" d="M942.6,56.6c10.9,0,19.8-8.9,19.8-19.8S953.5,17,942.6,17c-10.9,0-19.8,8.9-19.8,19.8
		C922.8,47.7,931.7,56.6,942.6,56.6z M942.6,27.7c5,0,9.1,4.1,9.1,9.1c0,5-4.1,9.1-9.1,9.1c-5,0-9.1-4.1-9.1-9.1
		C933.5,31.8,937.6,27.7,942.6,27.7z"/>
	<path class="st0" d="M739.5,885.7v-498L456.7,95.5V-78H446V99.8l282.8,292.3v493.7c-8.3,2.3-14.4,10-14.4,19.1
		c0,10.9,8.9,19.8,19.8,19.8c10.9,0,19.8-8.9,19.8-19.8C754,895.7,747.9,888.1,739.5,885.7z M734.2,913.9c-5,0-9.1-4.1-9.1-9.1
		c0-5,4.1-9.1,9.1-9.1c5,0,9.1,4.1,9.1,9.1C743.3,909.8,739.2,913.9,734.2,913.9z"/>
	<path class="st0" d="M452.7,863.2h129.1c2.3,8.3,10,14.5,19.1,14.5c10.9,0,19.8-8.9,19.8-19.8c0-10.9-8.9-19.8-19.8-19.8
		c-9.1,0-16.7,6.1-19.1,14.5H457.1L438,833.4V421.7l-30-30h-37.9c-2.4-8.3-10-14.4-19-14.4c-10.9,0-19.8,8.9-19.8,19.8
		c0,10.9,8.9,19.8,19.8,19.8c9.1,0,16.8-6.2,19.1-14.5h33.4l23.7,23.7v396.5l-61.9-62V680l-26.7-26.7h-55.5
		c-2.3-8.4-10-14.5-19.1-14.5c-10.9,0-19.8,8.9-19.8,19.8s8.9,19.8,19.8,19.8c9.1,0,16.7-6.1,19-14.4h51l20.4,20.4v80.7L452.7,863.2
		z M600.8,848.8c5,0,9.1,4.1,9.1,9.1c0,5-4.1,9.1-9.1,9.1c-5,0-9.1-4.1-9.1-9.1C591.8,852.8,595.8,848.8,600.8,848.8z M351.1,406.3
		c-5,0-9.1-4.1-9.1-9.1c0-5,4.1-9.1,9.1-9.1c5,0,9.1,4.1,9.1,9.1C360.2,402.2,356.1,406.3,351.1,406.3z M264.1,667.7
		c-5,0-9.1-4.1-9.1-9.1c0-5,4.1-9.1,9.1-9.1c5,0,9.1,4.1,9.1,9.1C273.2,663.6,269.1,667.7,264.1,667.7z"/>
	<path class="st0" d="M347.2,104.1h-11.5v10.7h11.5c2.3,8.4,10,14.5,19.1,14.5c10.9,0,19.8-8.9,19.8-19.8s-8.9-19.8-19.8-19.8
		C357.2,89.7,349.5,95.8,347.2,104.1z M375.3,109.5c0,5-4.1,9.1-9.1,9.1c-5,0-9.1-4.1-9.1-9.1c0-5,4.1-9.1,9.1-9.1
		C371.2,100.4,375.3,104.5,375.3,109.5z"/>
	<path class="st0" d="M555,110.7c10.9,0,19.8-8.9,19.8-19.8c0-9-6-16.6-14.2-19V-78h-10.7V71.8c-8.5,2.3-14.7,10-14.7,19.1
		C535.2,101.8,544.1,110.7,555,110.7z M555,81.8c5,0,9.1,4.1,9.1,9.1c0,5-4.1,9.1-9.1,9.1c-5,0-9.1-4.1-9.1-9.1
		C545.9,85.9,550,81.8,555,81.8z"/>
	<path class="st0" d="M602.3,142.9c10.9,0,19.8-8.9,19.8-19.8c0-9.1-6.2-16.8-14.5-19.1V-78h-10.7v182c-8.3,2.4-14.4,10-14.4,19
		C582.5,134,591.4,142.9,602.3,142.9z M602.3,113.9c5,0,9.1,4.1,9.1,9.1c0,5-4.1,9.1-9.1,9.1c-5,0-9.1-4.1-9.1-9.1
		C593.2,118,597.3,113.9,602.3,113.9z"/>
	<path class="st0" d="M650.8,172.7c10.9,0,19.8-8.9,19.8-19.8c0-9.1-6.1-16.7-14.4-19.1V-78h-10.7v211.8c-8.4,2.3-14.5,10-14.5,19.1
		C631,163.8,639.8,172.7,650.8,172.7z M650.8,143.8c5,0,9.1,4.1,9.1,9.1c0,5-4.1,9.1-9.1,9.1c-5,0-9.1-4.1-9.1-9.1
		C641.7,147.8,645.8,143.8,650.8,143.8z"/>
	<path class="st0" d="M349.2,138.3c-10.9,0-19.8,8.9-19.8,19.8c0,10.9,8.9,19.8,19.8,19.8c9.1,0,16.8-6.2,19.1-14.5h21.1
		l259.8,259.8v168.5H660V418.7L395.5,154.2l-1.6-1.6h-25.6C365.9,144.4,358.3,138.3,349.2,138.3z M349.2,167.2c-5,0-9.1-4.1-9.1-9.1
		c0-5,4.1-9.1,9.1-9.1s9.1,4.1,9.1,9.1C358.4,163.1,354.3,167.2,349.2,167.2z"/>
	<path class="st0" d="M390.1,215.9c0-10.9-8.9-19.8-19.8-19.8c-10.9,0-19.8,8.9-19.8,19.8c0,9.1,6.1,16.7,14.4,19.1v79.2
		l177.7,177.7v65.3h10.7v-69.7L375.6,309.7V235C384,232.6,390.1,224.9,390.1,215.9z M361.2,215.9c0-5,4.1-9.1,9.1-9.1
		c5,0,9.1,4.1,9.1,9.1c0,5-4.1,9.1-9.1,9.1S361.2,220.9,361.2,215.9z"/>
	<path class="st0" d="M431.6,294.6c-10.9,0-19.8,8.9-19.8,19.8c0,10.9,8.9,19.8,19.8,19.8c4.2,0,8.1-1.3,11.3-3.6l137.7,137.7v274.2
		L518,805.1h-36.7v-99.8c8.3-2.4,14.4-10,14.4-19c0-10.9-8.9-19.8-19.8-19.8c-10.9,0-19.8,8.9-19.8,19.8c0,9.1,6.2,16.8,14.5,19.1
		v110.4h51.8l68.8-68.8V464L449.7,322.4c1.1-2.4,1.7-5.1,1.7-7.9C451.4,303.5,442.5,294.6,431.6,294.6z M466.8,686.4
		c0-5,4.1-9.1,9.1-9.1c5,0,9.1,4.1,9.1,9.1s-4.1,9.1-9.1,9.1C470.9,695.5,466.8,691.4,466.8,686.4z M431.6,323.5
		c-5,0-9.1-4.1-9.1-9.1c0-5,4.1-9.1,9.1-9.1c5,0,9.1,4.1,9.1,9.1C440.7,319.5,436.6,323.5,431.6,323.5z"/>
	<path class="st0" d="M476,651.6c10.9,0,19.8-8.9,19.8-19.8c0-10.9-8.9-19.8-19.8-19.8c-10.9,0-19.8,8.9-19.8,19.8
		C456.1,642.7,465,651.6,476,651.6z M476,622.6c5,0,9.1,4.1,9.1,9.1c0,5-4.1,9.1-9.1,9.1c-5,0-9.1-4.1-9.1-9.1
		C466.8,626.7,470.9,622.6,476,622.6z"/>
	<path class="st0" d="M476,544c10.9,0,19.8-8.9,19.8-19.8c0-10.9-8.9-19.8-19.8-19.8c-10.9,0-19.8,8.9-19.8,19.8
		C456.1,535.1,465,544,476,544z M476,515c5,0,9.1,4.1,9.1,9.1c0,5-4.1,9.1-9.1,9.1c-5,0-9.1-4.1-9.1-9.1
		C466.8,519.1,470.9,515,476,515z"/>
	<path class="st0" d="M548,746.1c10.9,0,19.8-8.9,19.8-19.8c0-10.9-8.9-19.8-19.8-19.8s-19.8,8.9-19.8,19.8S537.1,746.1,548,746.1z
		 M548,717.2c5,0,9.1,4.1,9.1,9.1c0,5-4.1,9.1-9.1,9.1s-9.1-4.1-9.1-9.1C538.9,721.2,543,717.2,548,717.2z"/>
	<path class="st0" d="M567.8,588.2c0-10.9-8.9-19.8-19.8-19.8c-10.9,0-19.8,8.9-19.8,19.8S537.1,608,548,608
		C559,608,567.8,599.1,567.8,588.2z M548,597.3c-5,0-9.1-4.1-9.1-9.1c0-5,4.1-9.1,9.1-9.1s9.1,4.1,9.1,9.1
		C557.1,593.2,553,597.3,548,597.3z"/>
	<path class="st0" d="M373,608.1c10.9,0,19.8-8.9,19.8-19.8c0-10.9-8.9-19.8-19.8-19.8c-3,0-5.8,0.7-8.3,1.9l-9.4-9.4l-7.6,7.6
		l8.8,8.8c-2.1,3.2-3.3,6.9-3.3,11C353.2,599.1,362.1,608.1,373,608.1z M382.1,588.2c0,5-4.1,9.1-9.1,9.1c-5,0-9.1-4.1-9.1-9.1
		c0-5,4.1-9.1,9.1-9.1S382.1,583.2,382.1,588.2z"/>
	<rect x="542.6" y="621.8" class="st0" width="10.7" height="71.6"/>
	<path class="st0" d="M625.2,442.8L436.1,253.8c0.9-2.2,1.4-4.7,1.4-7.2c0-10.9-8.9-19.8-19.8-19.8c-10.9,0-19.8,8.9-19.8,19.8
		s8.9,19.8,19.8,19.8c4.5,0,8.6-1.5,11.9-4l184.9,184.9v220h10.7V442.8z M417.7,255.7c-5,0-9.1-4.1-9.1-9.1c0-5,4.1-9.1,9.1-9.1
		s9.1,4.1,9.1,9.1C426.8,251.6,422.7,255.7,417.7,255.7z"/>
	<rect x="396.7" y="10.8" class="st0" width="10.7" height="16.1"/>
	<rect x="396.7" y="43.1" class="st0" width="10.7" height="16.1"/>
	<rect x="396.7" y="-21.4" class="st0" width="10.7" height="16.1"/>
	<rect x="396.7" y="75.3" class="st0" width="10.7" height="16.1"/>
	<rect x="396.7" y="-53.6" class="st0" width="10.7" height="16.1"/>
	<rect x="689.2" y="469.9" class="st0" width="10.7" height="16.1"/>
	<rect x="689.2" y="437.6" class="st0" width="10.7" height="16.1"/>
	
		<rect x="424.6" y="128.2" transform="matrix(0.7071 -0.7071 0.7071 0.7071 29.5672 343.9291)" class="st1" width="10.7" height="16.1"/>
	
		<rect x="561.4" y="264.9" transform="matrix(0.7071 -0.7072 0.7072 0.7071 -27.0077 480.7773)" class="st2" width="10.7" height="16.1"/>
	
		<rect x="584.2" y="287.7" transform="matrix(0.7071 -0.7072 0.7072 0.7071 -36.4565 503.571)" class="st2" width="10.7" height="16.1"/>
	
		<rect x="538.5" y="242.2" transform="matrix(0.7071 -0.7071 0.7071 0.7071 -17.6362 457.8741)" class="st1" width="10.7" height="16.1"/>
	<polygon class="st0" points="416.6,115.4 405.8,104.6 402.9,107.5 396.7,107.5 396.7,110.6 409.1,123 	"/>
	<rect x="689.2" y="502.1" class="st0" width="10.7" height="16.1"/>
	<rect x="689.2" y="405.4" class="st0" width="10.7" height="16.1"/>
	
		<rect x="652.6" y="356.1" transform="matrix(0.7071 -0.7072 0.7072 0.7071 -64.7887 571.9611)" class="st2" width="10.7" height="16.1"/>
	<rect x="396.7" y="-78" class="st0" width="10.7" height="8.2"/>
	
		<rect x="515.7" y="219.4" transform="matrix(0.7072 -0.707 0.707 0.7072 -8.223 435.0123)" class="st1" width="10.7" height="16.1"/>
	
		<rect x="493" y="196.6" transform="matrix(0.7071 -0.7072 0.7072 0.7071 1.2924 412.4009)" class="st2" width="10.7" height="16.1"/>
	
		<rect x="607" y="310.5" transform="matrix(0.7071 -0.7072 0.7072 0.7071 -45.9054 526.3797)" class="st2" width="10.7" height="16.1"/>
	
		<rect x="470.3" y="173.8" transform="matrix(0.7071 -0.7072 0.7072 0.7071 10.7405 389.6068)" class="st2" width="10.7" height="16.1"/>
	
		<rect x="447.5" y="151" transform="matrix(0.7071 -0.7072 0.7072 0.7071 20.1833 366.8009)" class="st2" width="10.7" height="16.1"/>
	
		<rect x="629.7" y="333.3" transform="matrix(0.7071 -0.7071 0.7071 0.7071 -55.3879 549.0438)" class="st1" width="10.7" height="16.1"/>
	
		<rect x="675.4" y="378.9" transform="matrix(0.7072 -0.7071 0.7071 0.7072 -74.2654 594.6472)" class="st2" width="10.7" height="16.1"/>
	<rect x="689.2" y="534.3" class="st0" width="10.7" height="8"/>
	<path class="st0" d="M-383.9,608.3c10.9,0,19.8-8.9,19.8-19.8c0-10.9-8.9-19.8-19.8-19.8s-19.8,8.9-19.8,19.8
		C-403.7,599.4-394.8,608.3-383.9,608.3z M-383.9,579.3c5,0,9.1,4.1,9.1,9.1c0,5-4.1,9.1-9.1,9.1c-5,0-9.1-4.1-9.1-9.1
		C-393,583.4-388.9,579.3-383.9,579.3z"/>
	<path class="st0" d="M-383.9,544.2c10.9,0,19.8-8.9,19.8-19.8s-8.9-19.8-19.8-19.8s-19.8,8.9-19.8,19.8S-394.8,544.2-383.9,544.2z
		 M-383.9,515.2c5,0,9.1,4.1,9.1,9.1c0,5-4.1,9.1-9.1,9.1c-5,0-9.1-4.1-9.1-9.1C-393,519.3-388.9,515.2-383.9,515.2z"/>
	<path class="st0" d="M-383.9,746.3c10.9,0,19.8-8.9,19.8-19.8c0-10.9-8.9-19.8-19.8-19.8s-19.8,8.9-19.8,19.8
		C-403.7,737.4-394.8,746.3-383.9,746.3z M-383.9,717.4c5,0,9.1,4.1,9.1,9.1c0,5-4.1,9.1-9.1,9.1c-5,0-9.1-4.1-9.1-9.1
		C-393,721.5-388.9,717.4-383.9,717.4z"/>
	<path class="st0" d="M-228.2,675.9c-10.9,0-19.8,8.9-19.8,19.8c0,10.9,8.9,19.8,19.8,19.8s19.8-8.9,19.8-19.8
		C-208.3,684.8-217.2,675.9-228.2,675.9z M-228.2,704.9c-5,0-9.1-4.1-9.1-9.1c0-5,4.1-9.1,9.1-9.1c5,0,9.1,4.1,9.1,9.1
		C-219.1,700.8-223.1,704.9-228.2,704.9z"/>
	<rect x="-389.3" y="621.3" class="st0" width="10.7" height="71.6"/>
	<polygon class="st0" points="-378.6,827.3 -378.6,757.5 -389.3,757.5 -389.3,822.8 -451.8,885.4 -451.8,900.5 -380.1,828.8 	"/>
	<path class="st0" d="M-330.6,850.7V487h97.8v3.7h10.7V487h63.5c2.3,8.4,10,14.6,19.1,14.6c10.9,0,19.8-8.9,19.8-19.8
		c0-10.9-8.9-19.8-19.8-19.8c-9,0-16.7,6.1-19,14.3h-293.4V487h110.5v359.2l-110.5,110.5v15.1l119.6-119.6L-330.6,850.7z
		 M-139.4,472.7c5,0,9.1,4.1,9.1,9.1c0,5-4.1,9.1-9.1,9.1c-5,0-9.1-4.1-9.1-9.1C-148.5,476.8-144.4,472.7-139.4,472.7z"/>
	<polygon class="st0" points="-296.8,871.9 -296.8,647.4 -307.5,647.4 -307.5,867.4 -412.1,972 -396.9,972 -298.4,873.4 	"/>
	<path class="st0" d="M-262,896V579c8.3-2.4,14.4-10,14.4-19c0-10.9-8.9-19.8-19.8-19.8s-19.8,8.9-19.8,19.8
		c0,9.1,6.2,16.8,14.5,19.1v312.5l-80.5,80.5h15.1l74.4-74.4L-262,896z M-276.5,560c0-5,4.1-9.1,9.1-9.1s9.1,4.1,9.1,9.1
		c0,5-4.1,9.1-9.1,9.1S-276.5,565-276.5,560z"/>
	<rect x="-232.8" y="821.7" class="st0" width="10.7" height="16.3"/>
	<rect x="-232.8" y="789.2" class="st0" width="10.7" height="16.3"/>
	<rect x="-232.8" y="756.6" class="st0" width="10.7" height="16.3"/>
	<rect x="-232.8" y="854.2" class="st0" width="10.7" height="16.3"/>
	<rect x="-232.8" y="886.7" class="st0" width="10.7" height="16.3"/>
	<polygon class="st0" points="-292.5,971.4 -291.9,972 -278,972 -273.5,967.5 -281,959.9 	"/>
	
		<rect x="-268.1" y="941.1" transform="matrix(0.7071 -0.7071 0.7071 0.7071 -745.3679 93.3504)" class="st1" width="16.3" height="10.7"/>
	
		<rect x="-245.1" y="918.1" transform="matrix(0.7071 -0.7071 0.7071 0.7071 -722.3774 102.8799)" class="st1" width="16.3" height="10.7"/>
	<rect x="-232.8" y="732.4" class="st0" width="10.7" height="8"/>
	<path class="st0" d="M958.8,199.3c-10.9,0-19.8,8.9-19.8,19.8s8.9,19.8,19.8,19.8c10.9,0,19.8-8.9,19.8-19.8c0-2.5-0.5-5-1.4-7.2
		l70.9-70.9v-15.1l-77.5,77.5C967.3,200.8,963.2,199.3,958.8,199.3z M958.8,228.3c-5,0-9.1-4.1-9.1-9.1c0-5,4.1-9.1,9.1-9.1
		s9.1,4.1,9.1,9.1C967.9,224.2,963.8,228.3,958.8,228.3z"/>
	<path class="st0" d="M972.7,131.5c-10.9,0-19.8,8.9-19.8,19.8c0,10.9,8.9,19.8,19.8,19.8c10.9,0,19.8-8.9,19.8-19.8
		c0-2.8-0.6-5.5-1.7-7.9l57.3-57.3V70.9L984,135C980.8,132.8,976.9,131.5,972.7,131.5z M972.7,160.4c-5,0-9.1-4.1-9.1-9.1
		c0-5,4.1-9.1,9.1-9.1s9.1,4.1,9.1,9.1C981.8,156.3,977.7,160.4,972.7,160.4z"/>
	<path class="st0" d="M896.1,151.5v79.2c-8.3,2.3-14.4,10-14.4,19.1c0,10.9,8.9,19.8,19.8,19.8c10.9,0,19.8-8.9,19.8-19.8
		c0-9.1-6.1-16.7-14.5-19.1V156l141.4-141.4V-0.5L896.1,151.5z M910.5,249.8c0,5-4.1,9.1-9.1,9.1c-5,0-9.1-4.1-9.1-9.1
		c0-5,4.1-9.1,9.1-9.1C906.5,240.7,910.5,244.8,910.5,249.8z"/>
	<path class="st0" d="M909.4,302.3c-2.3-8.4-10-14.5-19.1-14.5c-10.9,0-19.8,8.9-19.8,19.8c0,10.9,8.9,19.8,19.8,19.8
		c9,0,16.7-6.1,19-14.4H935l113.1-113.1v-15.1L930.6,302.3L909.4,302.3L909.4,302.3z M890.4,316.7c-5,0-9.1-4.1-9.1-9.1
		c0-5,4.1-9.1,9.1-9.1c5,0,9.1,4.1,9.1,9.1S895.4,316.7,890.4,316.7z"/>
	<path class="st0" d="M937.8,395h-23.1l-91.9-91.9v-80.7l-26.7-26.7h-55.5c-2.3-8.4-10-14.5-19.1-14.5c-10.9,0-19.8,8.9-19.8,19.8
		c0,10.9,8.9,19.8,19.8,19.8c9.1,0,16.7-6.1,19-14.4h51l20.4,20.4v80.7l98.1,98.1h61.6c2.3,8.3,10,14.5,19.1,14.5
		c10.9,0,19.8-8.9,19.8-19.8c0-10.9-8.9-19.8-19.8-19.8c-9.1,0-16.7,6.1-19.1,14.5h-23.3v-2.1h-10.7L937.8,395L937.8,395z
		 M721.6,210.1c-5,0-9.1-4.1-9.1-9.1c0-5,4.1-9.1,9.1-9.1c5,0,9.1,4.1,9.1,9.1C730.7,206,726.6,210.1,721.6,210.1z M990.9,391.2
		c5,0,9.1,4.1,9.1,9.1s-4.1,9.1-9.1,9.1c-5,0-9.1-4.1-9.1-9.1S985.9,391.2,990.9,391.2z"/>
	<rect x="937.8" y="374.5" class="st0" width="10.7" height="9.2"/>
	<polygon class="st0" points="948.5,359.5 952.6,355.4 945.1,347.8 937.8,355.1 937.8,365.4 948.5,365.4 	"/>
	
		<rect x="979.7" y="307.5" transform="matrix(0.7071 -0.7071 0.7071 0.7071 68.0344 789.9425)" class="st1" width="15.7" height="10.7"/>
	<polygon class="st0" points="1048.1,251.7 1048.1,244.8 1044.7,248.2 	"/>
	
		<rect x="1024" y="263.3" transform="matrix(0.7071 -0.7071 0.7071 0.7071 112.251 808.306)" class="st1" width="15.7" height="10.7"/>
	
		<rect x="1002" y="285.4" transform="matrix(0.7072 -0.7071 0.7071 0.7072 90.1432 799.1496)" class="st2" width="15.7" height="10.7"/>
	
		<rect x="957.6" y="329.7" transform="matrix(0.7071 -0.7071 0.7071 0.7071 45.851 780.803)" class="st1" width="15.7" height="10.7"/>
	<rect x="-232.8" y="656.2" class="st0" width="10.7" height="8"/>
	<rect x="-232.8" y="596" class="st0" width="10.7" height="15"/>
	<rect x="-232.8" y="626.1" class="st0" width="10.7" height="15"/>
	<rect x="-232.8" y="565.9" class="st0" width="10.7" height="15"/>
	<rect x="-232.8" y="535.9" class="st0" width="10.7" height="15"/>
	<rect x="-232.8" y="505.8" class="st0" width="10.7" height="15"/>
	<polygon class="st0" points="795.4,641.5 806.1,641.5 806.1,392.4 509.2,95.4 509.2,-78 498.5,-78 498.5,99.9 795.4,396.8 	"/>
	<rect x="304.6" y="389.1" class="st0" width="10.7" height="16.1"/>
	<rect x="304.6" y="421.2" class="st0" width="10.7" height="16.1"/>
	<rect x="304.6" y="324.8" class="st0" width="10.7" height="16.1"/>
	<rect x="304.6" y="164.1" class="st0" width="10.7" height="16.1"/>
	<rect x="304.6" y="131.9" class="st0" width="10.7" height="16.1"/>
	<rect x="304.6" y="228.4" class="st0" width="10.7" height="16.1"/>
	<rect x="304.6" y="260.5" class="st0" width="10.7" height="16.1"/>
	<rect x="304.6" y="356.9" class="st0" width="10.7" height="16.1"/>
	<rect x="304.6" y="453.4" class="st0" width="10.7" height="16.1"/>
	<polygon class="st0" points="315.3,114.8 319.6,114.8 319.6,104.1 304.6,104.1 304.6,115.9 315.3,115.9 	"/>
	<rect x="304.6" y="292.6" class="st0" width="10.7" height="16.1"/>
	
		<rect x="329.2" y="539.6" transform="matrix(0.7071 -0.7071 0.7071 0.7071 -289.2456 396.937)" class="st1" width="10.7" height="16.1"/>
	<polygon class="st0" points="304.6,525.2 313.7,534.4 321.3,526.8 315.3,520.8 315.3,517.6 304.6,517.6 	"/>
	<rect x="304.6" y="196.2" class="st0" width="10.7" height="16.1"/>
	<rect x="304.6" y="485.5" class="st0" width="10.7" height="16.1"/>
	<path class="st0" d="M264.9,569.2c-8.2,2.4-14.2,10-14.2,19c0,10.9,8.9,19.8,19.8,19.8c10.9,0,19.8-8.9,19.8-19.8
		c0-9.2-6.3-16.9-14.8-19.1v-492l95.3,0.2V-78h-10.7V66.6l-95.3-0.2L264.9,569.2L264.9,569.2z M279.7,588.2c0,5-4.1,9.1-9.1,9.1
		c-5,0-9.1-4.1-9.1-9.1c0-5,4.1-9.1,9.1-9.1C275.6,579.1,279.7,583.2,279.7,588.2z"/>
	<path class="st0" d="M-201.6,366.1c-9.1,0-16.8,6.2-19.1,14.6h-164.4c-2.3-8.5-10-14.7-19.1-14.7c-10.9,0-19.8,8.9-19.8,19.8
		c0,10.9,8.9,19.8,19.8,19.8c9,0,16.6-6,19-14.2h164.6c2.4,8.2,10,14.3,19,14.3c10.9,0,19.8-8.9,19.8-19.8
		C-181.8,375-190.7,366.1-201.6,366.1z M-404.3,394.9c-5,0-9.1-4.1-9.1-9.1c0-5,4.1-9.1,9.1-9.1c5,0,9.1,4.1,9.1,9.1
		C-395.2,390.9-399.2,394.9-404.3,394.9z M-201.6,395.1c-5,0-9.1-4.1-9.1-9.1c0-5,4.1-9.1,9.1-9.1c5,0,9.1,4.1,9.1,9.1
		C-192.6,391-196.6,395.1-201.6,395.1z"/>
	<path class="st0" d="M-159.2,375c0,10.9,8.9,19.8,19.8,19.8c10.9,0,19.8-8.9,19.8-19.8c0-8.9-5.9-16.4-14-18.9v-3.7h-10.7v3.5
		C-152.8,358.1-159.2,365.8-159.2,375z M-139.4,365.9c5,0,9.1,4.1,9.1,9.1c0,5-4.1,9.1-9.1,9.1c-5,0-9.1-4.1-9.1-9.1
		C-148.5,370-144.4,365.9-139.4,365.9z"/>
	<path class="st0" d="M-329.4,130.7c0,10.9,8.9,19.8,19.8,19.8s19.8-8.9,19.8-19.8c0-10.9-8.9-19.8-19.8-19.8
		S-329.4,119.8-329.4,130.7z M-300.5,130.7c0,5-4.1,9.1-9.1,9.1c-5,0-9.1-4.1-9.1-9.1c0-5,4.1-9.1,9.1-9.1
		C-304.6,121.6-300.5,125.7-300.5,130.7z"/>
	<path class="st0" d="M-280.7,130.7c0,10.9,8.9,19.8,19.8,19.8c10.9,0,19.8-8.9,19.8-19.8c0-10.9-8.9-19.8-19.8-19.8
		C-271.8,110.9-280.7,119.8-280.7,130.7z"/>
	<path class="st0" d="M-202.6,130.7c0,10.9,8.9,19.8,19.8,19.8s19.8-8.9,19.8-19.8c0-10.9-8.9-19.8-19.8-19.8
		S-202.6,119.8-202.6,130.7z M-173.7,130.7c0,5-4.1,9.1-9.1,9.1c-5,0-9.1-4.1-9.1-9.1c0-5,4.1-9.1,9.1-9.1
		C-177.7,121.6-173.7,125.7-173.7,130.7z"/>
	<path class="st0" d="M-403.1,197c0-9-6.1-16.7-14.4-19v-11.5h-10.7V178c-8.4,2.3-14.5,10-14.5,19.1c0,10.9,8.9,19.8,19.8,19.8
		C-412,216.9-403.1,208-403.1,197z M-422.9,206.2c-5,0-9.1-4.1-9.1-9.1c0-5,4.1-9.1,9.1-9.1c5,0,9.1,4.1,9.1,9.1
		C-413.8,202.1-417.9,206.2-422.9,206.2z"/>
	<path class="st0" d="M-436.4,453c9.1,0,16.8-6.2,19.1-14.5h228.9c2.3,8.5,10,14.7,19.1,14.7c10.9,0,19.8-8.9,19.8-19.8
		s-8.9-19.8-19.8-19.8c-9,0-16.6,6-19,14.2h-229.1c-2.4-8.3-10-14.4-19-14.4c-6.2,0-11.8,2.9-15.4,7.4v24.9
		C-448.2,450.1-442.7,453-436.4,453z M-169.3,424.2c5,0,9.1,4.1,9.1,9.1c0,5-4.1,9.1-9.1,9.1c-5,0-9.1-4.1-9.1-9.1
		C-178.5,428.3-174.4,424.2-169.3,424.2z M-436.4,424.1c5,0,9.1,4.1,9.1,9.1c0,5-4.1,9.1-9.1,9.1c-5,0-9.1-4.1-9.1-9.1
		C-445.6,428.1-441.5,424.1-436.4,424.1z"/>
	<rect x="-144.3" y="256.9" class="st0" width="10.7" height="15.9"/>
	<rect x="-144.3" y="320.5" class="st0" width="10.7" height="15.9"/>
	<rect x="-144.3" y="288.7" class="st0" width="10.7" height="15.9"/>
	<polygon class="st0" points="-133.5,227.5 -146.9,227.5 -146.9,238.3 -144.3,238.3 -144.3,240.9 -133.5,240.9 	"/>
	<rect x="-241.1" y="227.5" class="st0" width="15.7" height="10.7"/>
	<rect x="-335.3" y="227.5" class="st0" width="15.7" height="10.7"/>
	<rect x="-209.7" y="227.5" class="st0" width="15.7" height="10.7"/>
	<rect x="-178.3" y="227.5" class="st0" width="15.7" height="10.7"/>
	<rect x="-272.5" y="227.5" class="st0" width="15.7" height="10.7"/>
	<rect x="-303.9" y="227.5" class="st0" width="15.7" height="10.7"/>
	<rect x="-366.6" y="227.5" class="st0" width="15.7" height="10.7"/>
	<rect x="-398" y="227.5" class="st0" width="15.7" height="10.7"/>
	<polygon class="st0" points="-431.2,234.8 -423.7,242.4 -419.5,238.3 -413.7,238.3 -413.7,227.5 -424,227.5 	"/>
	<polygon class="st0" points="-435.2,253.9 -442.8,246.3 -451.8,255.4 -451.8,260.4 -446.8,265.5 	"/>
	<path class="st0" d="M-223.8,287.5c2.2,8.5,10,14.9,19.2,14.9c10.9,0,19.8-8.9,19.8-19.8s-8.9-19.8-19.8-19.8
		c-8.9,0-16.5,5.9-19,14.1h-189.6l-38.6,37.4v14.9l43-41.6H-223.8z M-204.7,273.5c5,0,9.1,4.1,9.1,9.1c0,5-4.1,9.1-9.1,9.1
		c-5,0-9.1-4.1-9.1-9.1C-213.8,277.6-209.7,273.5-204.7,273.5z"/>
	<path class="st0" d="M-223.6,340c2.4,8.2,10,14.2,19,14.2c10.9,0,19.8-8.9,19.8-19.8c0-10.9-8.9-19.8-19.8-19.8
		c-9.2,0-16.9,6.3-19.1,14.7h-189.5l-38.5,38.5V383l43-43L-223.6,340L-223.6,340z M-204.7,325.3c5,0,9.1,4.1,9.1,9.1
		c0,5-4.1,9.1-9.1,9.1c-5,0-9.1-4.1-9.1-9.1C-213.8,329.4-209.7,325.3-204.7,325.3z"/>
	<path class="st0" d="M859,780.2h-11.5v10.7H859c2.3,8.4,10,14.5,19.1,14.5c10.9,0,19.8-8.9,19.8-19.8c0-10.9-8.9-19.8-19.8-19.8
		C869,765.8,861.4,771.9,859,780.2z M887.2,785.7c0,5-4.1,9.1-9.1,9.1c-5,0-9.1-4.1-9.1-9.1c0-5,4.1-9.1,9.1-9.1
		S887.2,780.6,887.2,785.7z"/>
	<path class="st0" d="M882.2,872.2c-10.9,0-19.8,8.9-19.8,19.8c0,9.1,6.1,16.7,14.4,19.1V972h10.7v-60.9c8.4-2.3,14.5-10,14.5-19.1
		C902,881.1,893.1,872.2,882.2,872.2z M882.2,901.1c-5,0-9.1-4.1-9.1-9.1c0-5,4.1-9.1,9.1-9.1c5,0,9.1,4.1,9.1,9.1
		C891.3,897.1,887.2,901.1,882.2,901.1z"/>
	<path class="st0" d="M949.3,922.7c0-10.9-8.9-19.8-19.8-19.8c-10.9,0-19.8,8.9-19.8,19.8c0,10.9,8.9,19.8,19.8,19.8
		c4.5,0,8.6-1.5,11.9-4l33.5,33.5H990L948,929.9C948.8,927.7,949.3,925.2,949.3,922.7z M929.5,931.8c-5,0-9.1-4.1-9.1-9.1
		s4.1-9.1,9.1-9.1c5,0,9.1,4.1,9.1,9.1S934.6,931.8,929.5,931.8z"/>
	<path class="st0" d="M905.8,828.8h-25.6c-2.4-8.3-10-14.4-19-14.4c-10.9,0-19.8,8.9-19.8,19.8c0,10.9,8.9,19.8,19.8,19.8
		c9.1,0,16.8-6.2,19.1-14.5h21.1L1033.8,972h14.3v-0.8L907.3,830.3L905.8,828.8z M861.1,843.3c-5,0-9.1-4.1-9.1-9.1
		c0-5,4.1-9.1,9.1-9.1c5,0,9.1,4.1,9.1,9.1S866.1,843.3,861.1,843.3z"/>
	<path class="st0" d="M850,146.7c-8.4,2.3-14.5,10-14.5,19.1c0,10.9,8.9,19.8,19.8,19.8c10.9,0,19.8-8.9,19.8-19.8
		c0-9.1-6.1-16.7-14.4-19.1V67.5L739.6-53.6V-78h-10.7v28.8L849.9,71.9L850,146.7L850,146.7z M864.4,165.8c0,5-4.1,9.1-9.1,9.1
		c-5,0-9.1-4.1-9.1-9.1c0-5,4.1-9.1,9.1-9.1C860.3,156.7,864.4,160.7,864.4,165.8z"/>
	<path class="st0" d="M855.5-10.1c2.4,8.3,10,14.4,19,14.4c10.9,0,19.8-8.9,19.8-19.8s-8.9-19.8-19.8-19.8
		c-9.1,0-16.8,6.2-19.1,14.5H822l-36.8-36.8V-78h-10.7v24.8l43.1,43.1L855.5-10.1L855.5-10.1z M874.5-24.6c5,0,9.1,4.1,9.1,9.1
		s-4.1,9.1-9.1,9.1c-5,0-9.1-4.1-9.1-9.1S869.5-24.6,874.5-24.6z"/>
	<rect x="936.2" y="496.3" class="st0" width="14.2" height="10.7"/>
	<rect x="964.5" y="496.3" class="st0" width="14.2" height="10.7"/>
	<rect x="992.9" y="496.3" class="st0" width="14.2" height="10.7"/>
	<rect x="1021.3" y="496.3" class="st0" width="14.2" height="10.7"/>
	<polygon class="st0" points="919.3,507 921.9,507 921.9,496.3 908.6,496.3 908.6,509.7 919.3,509.7 	"/>
	<rect x="908.6" y="683.7" class="st0" width="10.7" height="15.8"/>
	<rect x="908.6" y="747" class="st0" width="10.7" height="15.8"/>
	<rect x="908.6" y="715.4" class="st0" width="10.7" height="15.8"/>
	<rect x="908.6" y="652.1" class="st0" width="10.7" height="15.8"/>
	<polygon class="st0" points="908.6,786.7 917.2,795.3 924.7,787.8 919.3,782.3 919.3,778.6 908.6,778.6 	"/>
	<rect x="908.6" y="620.5" class="st0" width="10.7" height="15.8"/>
	
		<rect x="932.4" y="800.4" transform="matrix(0.7071 -0.7071 0.7071 0.7071 -296.9302 899.8295)" class="st1" width="10.7" height="15.8"/>
	
		<rect x="977.1" y="845.2" transform="matrix(0.7071 -0.7071 0.7071 0.7071 -315.4496 944.5551)" class="st1" width="10.7" height="15.8"/>
	<polygon class="st0" points="1040.2,918.4 1048.1,926.3 1048.1,911.2 1047.8,910.8 	"/>
	
		<rect x="954.7" y="822.8" transform="matrix(0.7071 -0.7071 0.7071 0.7071 -306.1952 922.1797)" class="st1" width="10.7" height="15.8"/>
	
		<rect x="1021.9" y="889.9" transform="matrix(0.7071 -0.7071 0.7071 0.7071 -333.9898 989.3181)" class="st1" width="10.7" height="15.8"/>
	
		<rect x="999.5" y="867.5" transform="matrix(0.7071 -0.7071 0.7071 0.7071 -324.7258 966.9385)" class="st1" width="10.7" height="15.8"/>
	<rect x="908.6" y="525.5" class="st0" width="10.7" height="15.8"/>
	<rect x="908.6" y="588.8" class="st0" width="10.7" height="15.8"/>
	<rect x="908.6" y="557.2" class="st0" width="10.7" height="15.8"/>
	<path class="st0" d="M968.6,586.6c8.5-2.2,14.9-10,14.9-19.2c0-10.9-8.9-19.8-19.8-19.8c-10.9,0-19.8,8.9-19.8,19.8
		c0,8.9,5.9,16.5,14.1,19V776l90.3,90.3v-15.1l-79.6-79.6L968.6,586.6L968.6,586.6z M954.5,567.4c0-5,4.1-9.1,9.1-9.1
		c5,0,9.1,4.1,9.1,9.1s-4.1,9.1-9.1,9.1C958.6,576.5,954.5,572.4,954.5,567.4z"/>
	<path class="st0" d="M1021.1,586.4c8.2-2.4,14.2-10,14.2-19c0-10.9-8.9-19.8-19.8-19.8c-10.9,0-19.8,8.9-19.8,19.8
		c0,9.2,6.3,16.9,14.7,19.1V776l37.8,37.8v-15.1l-27.1-27.1L1021.1,586.4L1021.1,586.4z M1006.3,567.4c0-5,4.1-9.1,9.1-9.1
		c5,0,9.1,4.1,9.1,9.1s-4.1,9.1-9.1,9.1C1010.4,576.5,1006.3,572.4,1006.3,567.4z"/>
	<rect x="816.4" y="872.4" class="st0" width="10.7" height="16.1"/>
	<rect x="816.4" y="840.2" class="st0" width="10.7" height="16.1"/>
	<polygon class="st0" points="816.4,792 827.1,792 827.1,790.9 831.4,790.9 831.4,780.2 816.4,780.2 	"/>
	<rect x="816.4" y="968.8" class="st0" width="10.7" height="3.2"/>
	<rect x="816.4" y="808.1" class="st0" width="10.7" height="16.1"/>
	<rect x="816.4" y="936.6" class="st0" width="10.7" height="16.1"/>
	<rect x="816.4" y="904.5" class="st0" width="10.7" height="16.1"/>
	<path class="st0" d="M882.8,506.3c8.4-2.3,14.6-10,14.6-19.1c0-10.9-8.9-19.8-19.8-19.8c-10.9,0-19.8,8.9-19.8,19.8
		c0,9,6.1,16.7,14.3,19v236.5h-95.3V972h10.7V753.4h95.3L882.8,506.3L882.8,506.3z M868.5,487.2c0-5,4.1-9.1,9.1-9.1
		c5,0,9.1,4.1,9.1,9.1c0,5-4.1,9.1-9.1,9.1C872.6,496.3,868.5,492.2,868.5,487.2z"/>
	<path class="st0" d="M221.9,7.5c9,0,16.7-6.1,19-14.4h11.5v-10.7H241c-2.3-8.4-10-14.5-19.1-14.5c-10.9,0-19.8,8.9-19.8,19.8
		C202.1-1.4,211,7.5,221.9,7.5z M221.9-21.4c5,0,9.1,4.1,9.1,9.1c0,5-4.1,9.1-9.1,9.1s-9.1-4.1-9.1-9.1
		C212.8-17.3,216.9-21.4,221.9-21.4z"/>
	<path class="st0" d="M194.2-55.4h25.6c2.4,8.3,10,14.4,19,14.4c10.9,0,19.8-8.9,19.8-19.8c0-7.3-4-13.7-9.9-17.1h-19.9
		c-4.4,2.6-7.7,6.8-9.1,11.8h-21.1L186.8-78h-15.1l21,21L194.2-55.4z M238.9-70c5,0,9.1,4.1,9.1,9.1c0,5-4.1,9.1-9.1,9.1
		c-5,0-9.1-4.1-9.1-9.1C229.8-65.9,233.9-70,238.9-70z"/>
	<rect x="180.7" y="112.2" class="st0" width="10.7" height="8"/>
	<rect x="180.7" y="13.4" class="st0" width="10.7" height="16.5"/>
	<rect x="180.7" y="46.3" class="st0" width="10.7" height="16.5"/>
	<rect x="180.7" y="79.2" class="st0" width="10.7" height="16.5"/>
	<polygon class="st0" points="191.4,-13.4 184.2,-20.6 176.6,-13 180.7,-8.9 180.7,-3.1 191.4,-3.1 	"/>
	
		<rect x="135.7" y="-64.1" transform="matrix(0.7071 -0.7071 0.7071 0.7071 81.0346 83.2722)" class="st1" width="10.7" height="15.9"/>
	
		<rect x="158.2" y="-41.6" transform="matrix(0.7071 -0.7071 0.7071 0.7071 71.6996 105.7592)" class="st1" width="10.7" height="15.9"/>
	<polygon class="st0" points="127.9,-76.8 126.8,-78 111.6,-78 120.4,-69.3 	"/>
	<path class="st0" d="M131.4,186.8c-8.5,2.2-14.9,10-14.9,19.2c0,10.9,8.9,19.8,19.8,19.8s19.8-8.9,19.8-19.8
		c0-8.9-5.9-16.5-14.1-19V-2.6L66.8-78H51.6l79.8,79.8L131.4,186.8L131.4,186.8z M145.5,206c0,5-4.1,9.1-9.1,9.1
		c-5,0-9.1-4.1-9.1-9.1c0-5,4.1-9.1,9.1-9.1C141.4,196.9,145.5,200.9,145.5,206z"/>
	<path class="st0" d="M78.9,187c-8.2,2.4-14.2,10-14.2,19c0,10.9,8.9,19.8,19.8,19.8s19.8-8.9,19.8-19.8c0-9.2-6.3-16.9-14.7-19.1
		V-2.6L14.3-78H-0.9L78.9,1.8L78.9,187L78.9,187z M93.7,206c0,5-4.1,9.1-9.1,9.1c-5,0-9.1-4.1-9.1-9.1c0-5,4.1-9.1,9.1-9.1
		C89.6,196.8,93.7,200.9,93.7,206z"/>
	<polygon class="st0" points="283.6,-18.7 272.9,-18.7 272.9,-17.6 268.6,-17.6 268.6,-6.9 283.6,-6.9 	"/>
	<rect x="272.9" y="-78" class="st0" width="10.7" height="11.1"/>
	<rect x="272.9" y="-50.8" class="st0" width="10.7" height="16.1"/>
	<path class="st0" d="M217.2,136.6c-8.4,2.3-14.6,10-14.6,19.1c0,10.9,8.9,19.8,19.8,19.8c10.9,0,19.8-8.9,19.8-19.8
		c0-9-6.1-16.7-14.3-19V30.6h95.3V-78h-10.7v97.9h-95.3L217.2,136.6L217.2,136.6z M231.5,155.7c0,5-4.1,9.1-9.1,9.1
		c-5,0-9.1-4.1-9.1-9.1c0-5,4.1-9.1,9.1-9.1C227.4,146.6,231.5,150.7,231.5,155.7z"/>
	<path class="st0" d="M-12.1,41.7c10.9,0,19.8-8.9,19.8-19.8S-1.2,2-12.1,2S-32,10.9-32,21.9C-32,32.8-23.1,41.7-12.1,41.7z"/>
	<path class="st0" d="M-64.3-10.5c10.9,0,19.8-8.9,19.8-19.8s-8.9-19.8-19.8-19.8s-19.8,8.9-19.8,19.8S-75.2-10.5-64.3-10.5z
		 M-64.3-39.4c5,0,9.1,4.1,9.1,9.1c0,5-4.1,9.1-9.1,9.1s-9.1-4.1-9.1-9.1C-73.4-35.3-69.3-39.4-64.3-39.4z"/>
	<path class="st0" d="M4.8,58.6c0,10.9,8.9,19.8,19.8,19.8s19.8-8.9,19.8-19.8s-8.9-19.8-19.8-19.8C13.7,38.8,4.8,47.7,4.8,58.6z
		 M33.7,58.6c0,5-4.1,9.1-9.1,9.1s-9.1-4.1-9.1-9.1c0-5,4.1-9.1,9.1-9.1S33.7,53.6,33.7,58.6z"/>
	<path class="st0" d="M-361.4-22.7c8.3,0,15.4-5.1,18.3-12.3H-161L-35.2,90.8v56.1c-8.3,2.3-14.5,10-14.5,19.1
		c0,10.9,8.9,19.8,19.8,19.8s19.8-8.9,19.8-19.8c0-9.1-6.1-16.7-14.5-19.1V86.4L-156.6-45.7h-185.3c-1.5-9.4-9.7-16.6-19.5-16.6
		c-10.9,0-19.8,8.9-19.8,19.8C-381.3-31.6-372.4-22.7-361.4-22.7z M-20.8,165.9c0,5-4.1,9.1-9.1,9.1c-5,0-9.1-4.1-9.1-9.1
		c0-5,4.1-9.1,9.1-9.1C-24.8,156.8-20.8,160.9-20.8,165.9z M-361.4-51.6c5,0,9.1,4.1,9.1,9.1c0,5-4.1,9.1-9.1,9.1
		c-5,0-9.1-4.1-9.1-9.1C-370.6-47.5-366.5-51.6-361.4-51.6z"/>
	<path class="st0" d="M-76.7,103.9v80.7l26.7,26.7H5.5c2.3,8.4,10,14.5,19.1,14.5c10.9,0,19.8-8.9,19.8-19.8
		c0-10.9-8.9-19.8-19.8-19.8c-9.1,0-16.7,6.1-19,14.4h-51l-20.4-20.4V99.4L-118.4,47v-0.5h-0.5l-45.1-45.1h-126.5
		c-2.4-8.2-10-14.3-19-14.3c-10.9,0-19.8,8.9-19.8,19.8s8.9,19.8,19.8,19.8c9.1,0,16.8-6.2,19.1-14.6h122l34.4,34.4h-317.7v10.7
		h328.4L-76.7,103.9z M24.6,196.9c5,0,9.1,4.1,9.1,9.1c0,5-4.1,9.1-9.1,9.1s-9.1-4.1-9.1-9.1C15.5,200.9,19.6,196.9,24.6,196.9z
		 M-309.6,15.9c-5,0-9.1-4.1-9.1-9.1s4.1-9.1,9.1-9.1c5,0,9.1,4.1,9.1,9.1S-304.6,15.9-309.6,15.9z"/>
	<polygon class="st0" points="-417.5,150.4 -417.5,135.4 -429.3,135.4 -429.3,146.1 -428.2,146.1 -428.2,150.4 	"/>
	<rect x="-451.8" y="135.4" class="st0" width="6.5" height="10.7"/>
	<path class="st0" d="M-390.7,201.8h247.2c2.3,8.4,10,14.6,19.1,14.6c10.9,0,19.8-8.9,19.8-19.8c0-10.9-8.9-19.8-19.8-19.8
		c-9,0-16.7,6.1-19,14.3H-380l0.2-95.3h-72.1v10.7h61.3L-390.7,201.8z M-124.5,187.5c5,0,9.1,4.1,9.1,9.1c0,5-4.1,9.1-9.1,9.1
		c-5,0-9.1-4.1-9.1-9.1C-133.5,191.6-129.5,187.5-124.5,187.5z"/>
	<path class="st0" d="M781.4,316.1v-56.1c8.3-2.3,14.5-10,14.5-19.1c0-10.9-8.9-19.8-19.8-19.8s-19.8,8.9-19.8,19.8
		c0,9.1,6.1,16.7,14.5,19.1v60.5l130.5,130.5l1.6,1.6h145.4v-10.7H907.2L781.4,316.1z M766.9,241c0-5,4.1-9.1,9.1-9.1
		c5,0,9.1,4.1,9.1,9.1s-4.1,9.1-9.1,9.1C771,250.1,766.9,246,766.9,241z"/>
	<ellipse class="st3" cx="764.3" cy="77.3" rx="19.8" ry="19.8"/>
	<path class="st0" d="M712.1,45.1c10.9,0,19.8-8.9,19.8-19.8S723,5.5,712.1,5.5c-10.9,0-19.8,8.9-19.8,19.8
		C692.3,36.2,701.2,45.1,712.1,45.1z M712.1,16.1c5,0,9.1,4.1,9.1,9.1c0,5-4.1,9.1-9.1,9.1c-5,0-9.1-4.1-9.1-9.1
		C703,20.2,707.1,16.1,712.1,16.1z"/>
	<path class="st0" d="M801,133.9c10.9,0,19.8-8.9,19.8-19.8s-8.9-19.8-19.8-19.8c-10.9,0-19.8,8.9-19.8,19.8
		C781.1,125,790,133.9,801,133.9z M801,105c5,0,9.1,4.1,9.1,9.1c0,5-4.1,9.1-9.1,9.1c-5,0-9.1-4.1-9.1-9.1
		C791.8,109.1,795.9,105,801,105z"/>
</g>
</svg>
